<?xml version="1.0" encoding="utf-8" standalone="no"?>
<!DOCTYPE svg PUBLIC "-//W3C//DTD SVG 1.1//EN"
  "http://www.w3.org/Graphics/SVG/1.1/DTD/svg11.dtd">
<svg xmlns:xlink="http://www.w3.org/1999/xlink" width="750.593829pt" height="652.516377pt" viewBox="0 0 750.593829 652.516377" xmlns="http://www.w3.org/2000/svg" version="1.1">
 <metadata>
  <rdf:RDF xmlns:dc="http://purl.org/dc/elements/1.1/" xmlns:cc="http://creativecommons.org/ns#" xmlns:rdf="http://www.w3.org/1999/02/22-rdf-syntax-ns#">
   <cc:Work>
    <dc:type rdf:resource="http://purl.org/dc/dcmitype/StillImage"/>
    <dc:date>2025-12-16T16:09:55.101780</dc:date>
    <dc:format>image/svg+xml</dc:format>
    <dc:creator>
     <cc:Agent>
      <dc:title>Matplotlib v3.10.7, https://matplotlib.org/</dc:title>
     </cc:Agent>
    </dc:creator>
   </cc:Work>
  </rdf:RDF>
 </metadata>
 <defs>
  <style type="text/css">*{stroke-linejoin: round; stroke-linecap: butt}</style>
 </defs>
 <g id="figure_1">
  <g id="patch_1">
   <path d="M -0 652.516377 
L 750.593829 652.516377 
L 750.593829 0 
L -0 0 
z
" style="fill: #ffffff"/>
  </g>
  <g id="axes_1">
   <g id="patch_2">
    <path d="M 583.193041 351.999231 
C 583.193041 316.170914 576.135644 280.690982 562.424741 247.589932 
C 548.713837 214.488883 528.61607 184.410449 503.281624 159.076003 
C 477.947178 133.741557 447.868743 113.64379 414.767694 99.932886 
C 381.666645 86.221983 346.186713 79.164585 310.358396 79.164585 
C 274.530078 79.164585 239.050146 86.221983 205.949097 99.932886 
C 172.848048 113.64379 142.769614 133.741557 117.435168 159.076003 
C 92.100721 184.410449 72.002954 214.488883 58.292051 247.589932 
C 44.581147 280.690982 37.52375 316.170914 37.52375 351.999231 
C 37.52375 387.827548 44.581147 423.307481 58.292051 456.40853 
C 72.002954 489.509579 92.100721 519.588013 117.435168 544.922459 
C 142.769614 570.256905 172.848048 590.354672 205.949097 604.065576 
C 239.050146 617.776479 274.530078 624.833877 310.358396 624.833877 
C 346.186713 624.833877 381.666645 617.776479 414.767694 604.065576 
C 447.868743 590.354672 477.947178 570.256905 503.281624 544.922459 
C 528.61607 519.588013 548.713837 489.509579 562.424741 456.40853 
C 576.135644 423.307481 583.193041 387.827548 583.193041 351.999231 
M 310.358396 351.999231 
C 310.358396 351.999231 310.358396 351.999231 310.358396 351.999231 
C 310.358396 351.999231 310.358396 351.999231 310.358396 351.999231 
C 310.358396 351.999231 310.358396 351.999231 310.358396 351.999231 
C 310.358396 351.999231 310.358396 351.999231 310.358396 351.999231 
C 310.358396 351.999231 310.358396 351.999231 310.358396 351.999231 
C 310.358396 351.999231 310.358396 351.999231 310.358396 351.999231 
C 310.358396 351.999231 310.358396 351.999231 310.358396 351.999231 
C 310.358396 351.999231 310.358396 351.999231 310.358396 351.999231 
C 310.358396 351.999231 310.358396 351.999231 310.358396 351.999231 
C 310.358396 351.999231 310.358396 351.999231 310.358396 351.999231 
C 310.358396 351.999231 310.358396 351.999231 310.358396 351.999231 
C 310.358396 351.999231 310.358396 351.999231 310.358396 351.999231 
C 310.358396 351.999231 310.358396 351.999231 310.358396 351.999231 
C 310.358396 351.999231 310.358396 351.999231 310.358396 351.999231 
C 310.358396 351.999231 310.358396 351.999231 310.358396 351.999231 
C 310.358396 351.999231 310.358396 351.999231 310.358396 351.999231 
z
" style="fill: #ffffff"/>
   </g>
   <g id="matplotlib.axis_1">
    <g id="xtick_1">
     <g id="line2d_1">
      <path d="M 310.358396 351.999231 
L 583.193041 351.999231 
" clip-path="url(#p29ec083bc4)" style="fill: none; stroke: #cccccc; stroke-linecap: round"/>
     </g>
     <g id="text_1">
      <!-- N -->
      <g style="fill: #262626" transform="translate(596.700541 354.206731) scale(0.08 -0.08)">
       <defs>
        <path id="DejaVuSans-4e" d="M 628 4666 
L 1478 4666 
L 3547 763 
L 3547 4666 
L 4159 4666 
L 4159 0 
L 3309 0 
L 1241 3903 
L 1241 0 
L 628 0 
L 628 4666 
z
" transform="scale(0.015625)"/>
       </defs>
       <use xlink:href="#DejaVuSans-4e"/>
      </g>
     </g>
    </g>
    <g id="xtick_2">
     <g id="line2d_2">
      <path d="M 310.358396 351.999231 
L 546.64013 215.581908 
" clip-path="url(#p29ec083bc4)" style="fill: none; stroke: #cccccc; stroke-linecap: round"/>
     </g>
     <g id="text_2">
      <!-- P -->
      <g style="fill: #262626" transform="translate(558.517674 209.539408) scale(0.08 -0.08)">
       <defs>
        <path id="DejaVuSans-50" d="M 1259 4147 
L 1259 2394 
L 2053 2394 
Q 2494 2394 2734 2622 
Q 2975 2850 2975 3272 
Q 2975 3691 2734 3919 
Q 2494 4147 2053 4147 
L 1259 4147 
z
M 628 4666 
L 2053 4666 
Q 2838 4666 3239 4311 
Q 3641 3956 3641 3272 
Q 3641 2581 3239 2228 
Q 2838 1875 2053 1875 
L 1259 1875 
L 1259 0 
L 628 0 
L 628 4666 
z
" transform="scale(0.015625)"/>
       </defs>
       <use xlink:href="#DejaVuSans-50"/>
      </g>
     </g>
    </g>
    <g id="xtick_3">
     <g id="line2d_3">
      <path d="M 310.358396 351.999231 
L 446.775719 115.717497 
" clip-path="url(#p29ec083bc4)" style="fill: none; stroke: #cccccc; stroke-linecap: round"/>
     </g>
     <g id="text_3">
      <!-- K -->
      <g style="fill: #262626" transform="translate(452.402594 103.635578) scale(0.08 -0.08)">
       <defs>
        <path id="DejaVuSans-4b" d="M 628 4666 
L 1259 4666 
L 1259 2694 
L 3353 4666 
L 4166 4666 
L 1850 2491 
L 4331 0 
L 3500 0 
L 1259 2247 
L 1259 0 
L 628 0 
L 628 4666 
z
" transform="scale(0.015625)"/>
       </defs>
       <use xlink:href="#DejaVuSans-4b"/>
      </g>
     </g>
    </g>
    <g id="xtick_4">
     <g id="line2d_4">
      <path d="M 310.358396 351.999231 
L 310.358396 79.164585 
" clip-path="url(#p29ec083bc4)" style="fill: none; stroke: #cccccc; stroke-linecap: round"/>
     </g>
     <g id="text_4">
      <!-- temperature -->
      <g style="fill: #262626" transform="translate(285.217771 64.872085) scale(0.08 -0.08)">
       <defs>
        <path id="DejaVuSans-74" d="M 1172 4494 
L 1172 3500 
L 2356 3500 
L 2356 3053 
L 1172 3053 
L 1172 1153 
Q 1172 725 1289 603 
Q 1406 481 1766 481 
L 2356 481 
L 2356 0 
L 1766 0 
Q 1100 0 847 248 
Q 594 497 594 1153 
L 594 3053 
L 172 3053 
L 172 3500 
L 594 3500 
L 594 4494 
L 1172 4494 
z
" transform="scale(0.015625)"/>
        <path id="DejaVuSans-65" d="M 3597 1894 
L 3597 1613 
L 953 1613 
Q 991 1019 1311 708 
Q 1631 397 2203 397 
Q 2534 397 2845 478 
Q 3156 559 3463 722 
L 3463 178 
Q 3153 47 2828 -22 
Q 2503 -91 2169 -91 
Q 1331 -91 842 396 
Q 353 884 353 1716 
Q 353 2575 817 3079 
Q 1281 3584 2069 3584 
Q 2775 3584 3186 3129 
Q 3597 2675 3597 1894 
z
M 3022 2063 
Q 3016 2534 2758 2815 
Q 2500 3097 2075 3097 
Q 1594 3097 1305 2825 
Q 1016 2553 972 2059 
L 3022 2063 
z
" transform="scale(0.015625)"/>
        <path id="DejaVuSans-6d" d="M 3328 2828 
Q 3544 3216 3844 3400 
Q 4144 3584 4550 3584 
Q 5097 3584 5394 3201 
Q 5691 2819 5691 2113 
L 5691 0 
L 5113 0 
L 5113 2094 
Q 5113 2597 4934 2840 
Q 4756 3084 4391 3084 
Q 3944 3084 3684 2787 
Q 3425 2491 3425 1978 
L 3425 0 
L 2847 0 
L 2847 2094 
Q 2847 2600 2669 2842 
Q 2491 3084 2119 3084 
Q 1678 3084 1418 2786 
Q 1159 2488 1159 1978 
L 1159 0 
L 581 0 
L 581 3500 
L 1159 3500 
L 1159 2956 
Q 1356 3278 1631 3431 
Q 1906 3584 2284 3584 
Q 2666 3584 2933 3390 
Q 3200 3197 3328 2828 
z
" transform="scale(0.015625)"/>
        <path id="DejaVuSans-70" d="M 1159 525 
L 1159 -1331 
L 581 -1331 
L 581 3500 
L 1159 3500 
L 1159 2969 
Q 1341 3281 1617 3432 
Q 1894 3584 2278 3584 
Q 2916 3584 3314 3078 
Q 3713 2572 3713 1747 
Q 3713 922 3314 415 
Q 2916 -91 2278 -91 
Q 1894 -91 1617 61 
Q 1341 213 1159 525 
z
M 3116 1747 
Q 3116 2381 2855 2742 
Q 2594 3103 2138 3103 
Q 1681 3103 1420 2742 
Q 1159 2381 1159 1747 
Q 1159 1113 1420 752 
Q 1681 391 2138 391 
Q 2594 391 2855 752 
Q 3116 1113 3116 1747 
z
" transform="scale(0.015625)"/>
        <path id="DejaVuSans-72" d="M 2631 2963 
Q 2534 3019 2420 3045 
Q 2306 3072 2169 3072 
Q 1681 3072 1420 2755 
Q 1159 2438 1159 1844 
L 1159 0 
L 581 0 
L 581 3500 
L 1159 3500 
L 1159 2956 
Q 1341 3275 1631 3429 
Q 1922 3584 2338 3584 
Q 2397 3584 2469 3576 
Q 2541 3569 2628 3553 
L 2631 2963 
z
" transform="scale(0.015625)"/>
        <path id="DejaVuSans-61" d="M 2194 1759 
Q 1497 1759 1228 1600 
Q 959 1441 959 1056 
Q 959 750 1161 570 
Q 1363 391 1709 391 
Q 2188 391 2477 730 
Q 2766 1069 2766 1631 
L 2766 1759 
L 2194 1759 
z
M 3341 1997 
L 3341 0 
L 2766 0 
L 2766 531 
Q 2569 213 2275 61 
Q 1981 -91 1556 -91 
Q 1019 -91 701 211 
Q 384 513 384 1019 
Q 384 1609 779 1909 
Q 1175 2209 1959 2209 
L 2766 2209 
L 2766 2266 
Q 2766 2663 2505 2880 
Q 2244 3097 1772 3097 
Q 1472 3097 1187 3025 
Q 903 2953 641 2809 
L 641 3341 
Q 956 3463 1253 3523 
Q 1550 3584 1831 3584 
Q 2591 3584 2966 3190 
Q 3341 2797 3341 1997 
z
" transform="scale(0.015625)"/>
        <path id="DejaVuSans-75" d="M 544 1381 
L 544 3500 
L 1119 3500 
L 1119 1403 
Q 1119 906 1312 657 
Q 1506 409 1894 409 
Q 2359 409 2629 706 
Q 2900 1003 2900 1516 
L 2900 3500 
L 3475 3500 
L 3475 0 
L 2900 0 
L 2900 538 
Q 2691 219 2414 64 
Q 2138 -91 1772 -91 
Q 1169 -91 856 284 
Q 544 659 544 1381 
z
M 1991 3584 
L 1991 3584 
z
" transform="scale(0.015625)"/>
       </defs>
       <use xlink:href="#DejaVuSans-74"/>
       <use xlink:href="#DejaVuSans-65" transform="translate(39.208984 0)"/>
       <use xlink:href="#DejaVuSans-6d" transform="translate(100.732422 0)"/>
       <use xlink:href="#DejaVuSans-70" transform="translate(198.144531 0)"/>
       <use xlink:href="#DejaVuSans-65" transform="translate(261.621094 0)"/>
       <use xlink:href="#DejaVuSans-72" transform="translate(323.144531 0)"/>
       <use xlink:href="#DejaVuSans-61" transform="translate(364.257812 0)"/>
       <use xlink:href="#DejaVuSans-74" transform="translate(425.537109 0)"/>
       <use xlink:href="#DejaVuSans-75" transform="translate(464.746094 0)"/>
       <use xlink:href="#DejaVuSans-72" transform="translate(528.125 0)"/>
       <use xlink:href="#DejaVuSans-65" transform="translate(566.988281 0)"/>
      </g>
     </g>
    </g>
    <g id="xtick_5">
     <g id="line2d_5">
      <path d="M 310.358396 351.999231 
L 173.941073 115.717497 
" clip-path="url(#p29ec083bc4)" style="fill: none; stroke: #cccccc; stroke-linecap: round"/>
     </g>
     <g id="text_5">
      <!-- humidity -->
      <g style="fill: #262626" transform="translate(148.027323 103.635578) scale(0.08 -0.08)">
       <defs>
        <path id="DejaVuSans-68" d="M 3513 2113 
L 3513 0 
L 2938 0 
L 2938 2094 
Q 2938 2591 2744 2837 
Q 2550 3084 2163 3084 
Q 1697 3084 1428 2787 
Q 1159 2491 1159 1978 
L 1159 0 
L 581 0 
L 581 4863 
L 1159 4863 
L 1159 2956 
Q 1366 3272 1645 3428 
Q 1925 3584 2291 3584 
Q 2894 3584 3203 3211 
Q 3513 2838 3513 2113 
z
" transform="scale(0.015625)"/>
        <path id="DejaVuSans-69" d="M 603 3500 
L 1178 3500 
L 1178 0 
L 603 0 
L 603 3500 
z
M 603 4863 
L 1178 4863 
L 1178 4134 
L 603 4134 
L 603 4863 
z
" transform="scale(0.015625)"/>
        <path id="DejaVuSans-64" d="M 2906 2969 
L 2906 4863 
L 3481 4863 
L 3481 0 
L 2906 0 
L 2906 525 
Q 2725 213 2448 61 
Q 2172 -91 1784 -91 
Q 1150 -91 751 415 
Q 353 922 353 1747 
Q 353 2572 751 3078 
Q 1150 3584 1784 3584 
Q 2172 3584 2448 3432 
Q 2725 3281 2906 2969 
z
M 947 1747 
Q 947 1113 1208 752 
Q 1469 391 1925 391 
Q 2381 391 2643 752 
Q 2906 1113 2906 1747 
Q 2906 2381 2643 2742 
Q 2381 3103 1925 3103 
Q 1469 3103 1208 2742 
Q 947 2381 947 1747 
z
" transform="scale(0.015625)"/>
        <path id="DejaVuSans-79" d="M 2059 -325 
Q 1816 -950 1584 -1140 
Q 1353 -1331 966 -1331 
L 506 -1331 
L 506 -850 
L 844 -850 
Q 1081 -850 1212 -737 
Q 1344 -625 1503 -206 
L 1606 56 
L 191 3500 
L 800 3500 
L 1894 763 
L 2988 3500 
L 3597 3500 
L 2059 -325 
z
" transform="scale(0.015625)"/>
       </defs>
       <use xlink:href="#DejaVuSans-68"/>
       <use xlink:href="#DejaVuSans-75" transform="translate(63.378906 0)"/>
       <use xlink:href="#DejaVuSans-6d" transform="translate(126.757812 0)"/>
       <use xlink:href="#DejaVuSans-69" transform="translate(224.169922 0)"/>
       <use xlink:href="#DejaVuSans-64" transform="translate(251.953125 0)"/>
       <use xlink:href="#DejaVuSans-69" transform="translate(315.429688 0)"/>
       <use xlink:href="#DejaVuSans-74" transform="translate(343.212891 0)"/>
       <use xlink:href="#DejaVuSans-79" transform="translate(382.421875 0)"/>
      </g>
     </g>
    </g>
    <g id="xtick_6">
     <g id="line2d_6">
      <path d="M 310.358396 351.999231 
L 74.076661 215.581908 
" clip-path="url(#p29ec083bc4)" style="fill: none; stroke: #cccccc; stroke-linecap: round"/>
     </g>
     <g id="text_6">
      <!-- ph -->
      <g style="fill: #262626" transform="translate(54.712867 209.539408) scale(0.08 -0.08)">
       <use xlink:href="#DejaVuSans-70"/>
       <use xlink:href="#DejaVuSans-68" transform="translate(63.476562 0)"/>
      </g>
     </g>
    </g>
    <g id="xtick_7">
     <g id="line2d_7">
      <path d="M 310.358396 351.999231 
L 37.52375 351.999231 
" clip-path="url(#p29ec083bc4)" style="fill: none; stroke: #cccccc; stroke-linecap: round"/>
     </g>
     <g id="text_7">
      <!-- rainfall -->
      <g style="fill: #262626" transform="translate(7.2 354.206731) scale(0.08 -0.08)">
       <defs>
        <path id="DejaVuSans-6e" d="M 3513 2113 
L 3513 0 
L 2938 0 
L 2938 2094 
Q 2938 2591 2744 2837 
Q 2550 3084 2163 3084 
Q 1697 3084 1428 2787 
Q 1159 2491 1159 1978 
L 1159 0 
L 581 0 
L 581 3500 
L 1159 3500 
L 1159 2956 
Q 1366 3272 1645 3428 
Q 1925 3584 2291 3584 
Q 2894 3584 3203 3211 
Q 3513 2838 3513 2113 
z
" transform="scale(0.015625)"/>
        <path id="DejaVuSans-66" d="M 2375 4863 
L 2375 4384 
L 1825 4384 
Q 1516 4384 1395 4259 
Q 1275 4134 1275 3809 
L 1275 3500 
L 2222 3500 
L 2222 3053 
L 1275 3053 
L 1275 0 
L 697 0 
L 697 3053 
L 147 3053 
L 147 3500 
L 697 3500 
L 697 3744 
Q 697 4328 969 4595 
Q 1241 4863 1831 4863 
L 2375 4863 
z
" transform="scale(0.015625)"/>
        <path id="DejaVuSans-6c" d="M 603 4863 
L 1178 4863 
L 1178 0 
L 603 0 
L 603 4863 
z
" transform="scale(0.015625)"/>
       </defs>
       <use xlink:href="#DejaVuSans-72"/>
       <use xlink:href="#DejaVuSans-61" transform="translate(41.113281 0)"/>
       <use xlink:href="#DejaVuSans-69" transform="translate(102.392578 0)"/>
       <use xlink:href="#DejaVuSans-6e" transform="translate(130.175781 0)"/>
       <use xlink:href="#DejaVuSans-66" transform="translate(193.554688 0)"/>
       <use xlink:href="#DejaVuSans-61" transform="translate(228.759766 0)"/>
       <use xlink:href="#DejaVuSans-6c" transform="translate(290.039062 0)"/>
       <use xlink:href="#DejaVuSans-6c" transform="translate(317.822266 0)"/>
      </g>
     </g>
    </g>
    <g id="xtick_8">
     <g id="line2d_8">
      <path d="M 310.358396 351.999231 
L 74.076661 488.416554 
" clip-path="url(#p29ec083bc4)" style="fill: none; stroke: #cccccc; stroke-linecap: round"/>
     </g>
     <g id="text_8">
      <!-- soil_moisture -->
      <g style="fill: #262626" transform="translate(33.375992 498.762804) scale(0.08 -0.08)">
       <defs>
        <path id="DejaVuSans-73" d="M 2834 3397 
L 2834 2853 
Q 2591 2978 2328 3040 
Q 2066 3103 1784 3103 
Q 1356 3103 1142 2972 
Q 928 2841 928 2578 
Q 928 2378 1081 2264 
Q 1234 2150 1697 2047 
L 1894 2003 
Q 2506 1872 2764 1633 
Q 3022 1394 3022 966 
Q 3022 478 2636 193 
Q 2250 -91 1575 -91 
Q 1294 -91 989 -36 
Q 684 19 347 128 
L 347 722 
Q 666 556 975 473 
Q 1284 391 1588 391 
Q 1994 391 2212 530 
Q 2431 669 2431 922 
Q 2431 1156 2273 1281 
Q 2116 1406 1581 1522 
L 1381 1569 
Q 847 1681 609 1914 
Q 372 2147 372 2553 
Q 372 3047 722 3315 
Q 1072 3584 1716 3584 
Q 2034 3584 2315 3537 
Q 2597 3491 2834 3397 
z
" transform="scale(0.015625)"/>
        <path id="DejaVuSans-6f" d="M 1959 3097 
Q 1497 3097 1228 2736 
Q 959 2375 959 1747 
Q 959 1119 1226 758 
Q 1494 397 1959 397 
Q 2419 397 2687 759 
Q 2956 1122 2956 1747 
Q 2956 2369 2687 2733 
Q 2419 3097 1959 3097 
z
M 1959 3584 
Q 2709 3584 3137 3096 
Q 3566 2609 3566 1747 
Q 3566 888 3137 398 
Q 2709 -91 1959 -91 
Q 1206 -91 779 398 
Q 353 888 353 1747 
Q 353 2609 779 3096 
Q 1206 3584 1959 3584 
z
" transform="scale(0.015625)"/>
        <path id="DejaVuSans-5f" d="M 3263 -1063 
L 3263 -1509 
L -63 -1509 
L -63 -1063 
L 3263 -1063 
z
" transform="scale(0.015625)"/>
       </defs>
       <use xlink:href="#DejaVuSans-73"/>
       <use xlink:href="#DejaVuSans-6f" transform="translate(52.099609 0)"/>
       <use xlink:href="#DejaVuSans-69" transform="translate(113.28125 0)"/>
       <use xlink:href="#DejaVuSans-6c" transform="translate(141.064453 0)"/>
       <use xlink:href="#DejaVuSans-5f" transform="translate(168.847656 0)"/>
       <use xlink:href="#DejaVuSans-6d" transform="translate(218.847656 0)"/>
       <use xlink:href="#DejaVuSans-6f" transform="translate(316.259766 0)"/>
       <use xlink:href="#DejaVuSans-69" transform="translate(377.441406 0)"/>
       <use xlink:href="#DejaVuSans-73" transform="translate(405.224609 0)"/>
       <use xlink:href="#DejaVuSans-74" transform="translate(457.324219 0)"/>
       <use xlink:href="#DejaVuSans-75" transform="translate(496.533203 0)"/>
       <use xlink:href="#DejaVuSans-72" transform="translate(559.912109 0)"/>
       <use xlink:href="#DejaVuSans-65" transform="translate(598.775391 0)"/>
      </g>
     </g>
    </g>
    <g id="xtick_9">
     <g id="line2d_9">
      <path d="M 310.358396 351.999231 
L 173.941073 588.280965 
" clip-path="url(#p29ec083bc4)" style="fill: none; stroke: #cccccc; stroke-linecap: round"/>
     </g>
     <g id="text_9">
      <!-- sunlight_exposure -->
      <g style="fill: #262626" transform="translate(129.292323 604.666634) scale(0.08 -0.08)">
       <defs>
        <path id="DejaVuSans-67" d="M 2906 1791 
Q 2906 2416 2648 2759 
Q 2391 3103 1925 3103 
Q 1463 3103 1205 2759 
Q 947 2416 947 1791 
Q 947 1169 1205 825 
Q 1463 481 1925 481 
Q 2391 481 2648 825 
Q 2906 1169 2906 1791 
z
M 3481 434 
Q 3481 -459 3084 -895 
Q 2688 -1331 1869 -1331 
Q 1566 -1331 1297 -1286 
Q 1028 -1241 775 -1147 
L 775 -588 
Q 1028 -725 1275 -790 
Q 1522 -856 1778 -856 
Q 2344 -856 2625 -561 
Q 2906 -266 2906 331 
L 2906 616 
Q 2728 306 2450 153 
Q 2172 0 1784 0 
Q 1141 0 747 490 
Q 353 981 353 1791 
Q 353 2603 747 3093 
Q 1141 3584 1784 3584 
Q 2172 3584 2450 3431 
Q 2728 3278 2906 2969 
L 2906 3500 
L 3481 3500 
L 3481 434 
z
" transform="scale(0.015625)"/>
        <path id="DejaVuSans-78" d="M 3513 3500 
L 2247 1797 
L 3578 0 
L 2900 0 
L 1881 1375 
L 863 0 
L 184 0 
L 1544 1831 
L 300 3500 
L 978 3500 
L 1906 2253 
L 2834 3500 
L 3513 3500 
z
" transform="scale(0.015625)"/>
       </defs>
       <use xlink:href="#DejaVuSans-73"/>
       <use xlink:href="#DejaVuSans-75" transform="translate(52.099609 0)"/>
       <use xlink:href="#DejaVuSans-6e" transform="translate(115.478516 0)"/>
       <use xlink:href="#DejaVuSans-6c" transform="translate(178.857422 0)"/>
       <use xlink:href="#DejaVuSans-69" transform="translate(206.640625 0)"/>
       <use xlink:href="#DejaVuSans-67" transform="translate(234.423828 0)"/>
       <use xlink:href="#DejaVuSans-68" transform="translate(297.900391 0)"/>
       <use xlink:href="#DejaVuSans-74" transform="translate(361.279297 0)"/>
       <use xlink:href="#DejaVuSans-5f" transform="translate(400.488281 0)"/>
       <use xlink:href="#DejaVuSans-65" transform="translate(450.488281 0)"/>
       <use xlink:href="#DejaVuSans-78" transform="translate(510.261719 0)"/>
       <use xlink:href="#DejaVuSans-70" transform="translate(569.441406 0)"/>
       <use xlink:href="#DejaVuSans-6f" transform="translate(632.917969 0)"/>
       <use xlink:href="#DejaVuSans-73" transform="translate(694.099609 0)"/>
       <use xlink:href="#DejaVuSans-75" transform="translate(746.199219 0)"/>
       <use xlink:href="#DejaVuSans-72" transform="translate(809.578125 0)"/>
       <use xlink:href="#DejaVuSans-65" transform="translate(848.441406 0)"/>
      </g>
     </g>
    </g>
    <g id="xtick_10">
     <g id="line2d_10">
      <path d="M 310.358396 351.999231 
L 310.358396 624.833877 
" clip-path="url(#p29ec083bc4)" style="fill: none; stroke: #cccccc; stroke-linecap: round"/>
     </g>
     <g id="text_10">
      <!-- organic_matter -->
      <g style="fill: #262626" transform="translate(279.910896 643.430127) scale(0.08 -0.08)">
       <defs>
        <path id="DejaVuSans-63" d="M 3122 3366 
L 3122 2828 
Q 2878 2963 2633 3030 
Q 2388 3097 2138 3097 
Q 1578 3097 1268 2742 
Q 959 2388 959 1747 
Q 959 1106 1268 751 
Q 1578 397 2138 397 
Q 2388 397 2633 464 
Q 2878 531 3122 666 
L 3122 134 
Q 2881 22 2623 -34 
Q 2366 -91 2075 -91 
Q 1284 -91 818 406 
Q 353 903 353 1747 
Q 353 2603 823 3093 
Q 1294 3584 2113 3584 
Q 2378 3584 2631 3529 
Q 2884 3475 3122 3366 
z
" transform="scale(0.015625)"/>
       </defs>
       <use xlink:href="#DejaVuSans-6f"/>
       <use xlink:href="#DejaVuSans-72" transform="translate(61.181641 0)"/>
       <use xlink:href="#DejaVuSans-67" transform="translate(100.544922 0)"/>
       <use xlink:href="#DejaVuSans-61" transform="translate(164.021484 0)"/>
       <use xlink:href="#DejaVuSans-6e" transform="translate(225.300781 0)"/>
       <use xlink:href="#DejaVuSans-69" transform="translate(288.679688 0)"/>
       <use xlink:href="#DejaVuSans-63" transform="translate(316.462891 0)"/>
       <use xlink:href="#DejaVuSans-5f" transform="translate(371.443359 0)"/>
       <use xlink:href="#DejaVuSans-6d" transform="translate(421.443359 0)"/>
       <use xlink:href="#DejaVuSans-61" transform="translate(518.855469 0)"/>
       <use xlink:href="#DejaVuSans-74" transform="translate(580.134766 0)"/>
       <use xlink:href="#DejaVuSans-74" transform="translate(619.34375 0)"/>
       <use xlink:href="#DejaVuSans-65" transform="translate(658.552734 0)"/>
       <use xlink:href="#DejaVuSans-72" transform="translate(720.076172 0)"/>
      </g>
     </g>
    </g>
    <g id="xtick_11">
     <g id="line2d_11">
      <path d="M 310.358396 351.999231 
L 446.775719 588.280965 
" clip-path="url(#p29ec083bc4)" style="fill: none; stroke: #cccccc; stroke-linecap: round"/>
     </g>
     <g id="text_11">
      <!-- pest_pressure -->
      <g style="fill: #262626" transform="translate(427.100094 604.555384) scale(0.08 -0.08)">
       <use xlink:href="#DejaVuSans-70"/>
       <use xlink:href="#DejaVuSans-65" transform="translate(63.476562 0)"/>
       <use xlink:href="#DejaVuSans-73" transform="translate(125 0)"/>
       <use xlink:href="#DejaVuSans-74" transform="translate(177.099609 0)"/>
       <use xlink:href="#DejaVuSans-5f" transform="translate(216.308594 0)"/>
       <use xlink:href="#DejaVuSans-70" transform="translate(266.308594 0)"/>
       <use xlink:href="#DejaVuSans-72" transform="translate(329.785156 0)"/>
       <use xlink:href="#DejaVuSans-65" transform="translate(368.648438 0)"/>
       <use xlink:href="#DejaVuSans-73" transform="translate(430.171875 0)"/>
       <use xlink:href="#DejaVuSans-73" transform="translate(482.271484 0)"/>
       <use xlink:href="#DejaVuSans-75" transform="translate(534.371094 0)"/>
       <use xlink:href="#DejaVuSans-72" transform="translate(597.75 0)"/>
       <use xlink:href="#DejaVuSans-65" transform="translate(636.613281 0)"/>
      </g>
     </g>
    </g>
    <g id="xtick_12">
     <g id="line2d_12">
      <path d="M 310.358396 351.999231 
L 546.64013 488.416554 
" clip-path="url(#p29ec083bc4)" style="fill: none; stroke: #cccccc; stroke-linecap: round"/>
     </g>
     <g id="text_12">
      <!-- fertilizer_usage -->
      <g style="fill: #262626" transform="translate(530.238299 498.762804) scale(0.08 -0.08)">
       <defs>
        <path id="DejaVuSans-7a" d="M 353 3500 
L 3084 3500 
L 3084 2975 
L 922 459 
L 3084 459 
L 3084 0 
L 275 0 
L 275 525 
L 2438 3041 
L 353 3041 
L 353 3500 
z
" transform="scale(0.015625)"/>
       </defs>
       <use xlink:href="#DejaVuSans-66"/>
       <use xlink:href="#DejaVuSans-65" transform="translate(35.205078 0)"/>
       <use xlink:href="#DejaVuSans-72" transform="translate(96.728516 0)"/>
       <use xlink:href="#DejaVuSans-74" transform="translate(137.841797 0)"/>
       <use xlink:href="#DejaVuSans-69" transform="translate(177.050781 0)"/>
       <use xlink:href="#DejaVuSans-6c" transform="translate(204.833984 0)"/>
       <use xlink:href="#DejaVuSans-69" transform="translate(232.617188 0)"/>
       <use xlink:href="#DejaVuSans-7a" transform="translate(260.400391 0)"/>
       <use xlink:href="#DejaVuSans-65" transform="translate(312.890625 0)"/>
       <use xlink:href="#DejaVuSans-72" transform="translate(374.414062 0)"/>
       <use xlink:href="#DejaVuSans-5f" transform="translate(415.527344 0)"/>
       <use xlink:href="#DejaVuSans-75" transform="translate(465.527344 0)"/>
       <use xlink:href="#DejaVuSans-73" transform="translate(528.90625 0)"/>
       <use xlink:href="#DejaVuSans-61" transform="translate(581.005859 0)"/>
       <use xlink:href="#DejaVuSans-67" transform="translate(642.285156 0)"/>
       <use xlink:href="#DejaVuSans-65" transform="translate(705.761719 0)"/>
      </g>
     </g>
    </g>
   </g>
   <g id="matplotlib.axis_2">
    <g id="ytick_1">
     <g id="line2d_13">
      <path d="M 362.3269 351.999231 
C 362.3269 345.17479 360.982633 338.416707 358.371033 332.111746 
C 355.759432 325.806784 351.931286 320.077558 347.105677 315.25195 
C 342.280068 310.426341 336.550843 306.598195 330.245881 303.986594 
C 323.940919 301.374993 317.182837 300.030727 310.358396 300.030727 
C 303.533954 300.030727 296.775872 301.374993 290.47091 303.986594 
C 284.165948 306.598195 278.436723 310.426341 273.611114 315.25195 
C 268.785505 320.077558 264.957359 325.806784 262.345759 332.111746 
C 259.734158 338.416707 258.389892 345.17479 258.389892 351.999231 
C 258.389892 358.823672 259.734158 365.581755 262.345759 371.886717 
C 264.957359 378.191678 268.785505 383.920904 273.611114 388.746513 
C 278.436723 393.572121 284.165948 397.400268 290.47091 400.011868 
C 296.775872 402.623469 303.533954 403.967735 310.358396 403.967735 
C 317.182837 403.967735 323.940919 402.623469 330.245881 400.011868 
C 336.550843 397.400268 342.280068 393.572121 347.105677 388.746513 
C 351.931286 383.920904 355.759432 378.191678 358.371033 371.886717 
C 360.982633 365.581755 362.3269 358.823672 362.3269 351.999231 
" clip-path="url(#p29ec083bc4)" style="fill: none; stroke: #cccccc; stroke-linecap: round"/>
     </g>
    </g>
    <g id="ytick_2">
     <g id="line2d_14">
      <path d="M 414.295404 351.999231 
C 414.295404 338.350348 411.606871 324.834184 406.38367 312.22426 
C 401.160469 299.614337 393.504176 288.155886 383.852959 278.504668 
C 374.201741 268.85345 362.74329 261.197158 350.133367 255.973957 
C 337.523443 250.750755 324.007278 248.062223 310.358396 248.062223 
C 296.709513 248.062223 283.193348 250.750755 270.583425 255.973957 
C 257.973501 261.197158 246.51505 268.85345 236.863833 278.504668 
C 227.212615 288.155886 219.556323 299.614337 214.333121 312.22426 
C 209.10992 324.834184 206.421388 338.350348 206.421388 351.999231 
C 206.421388 365.648114 209.10992 379.164278 214.333121 391.774202 
C 219.556323 404.384125 227.212615 415.842577 236.863833 425.493794 
C 246.51505 435.145012 257.973501 442.801304 270.583425 448.024505 
C 283.193348 453.247707 296.709513 455.936239 310.358396 455.936239 
C 324.007278 455.936239 337.523443 453.247707 350.133367 448.024505 
C 362.74329 442.801304 374.201741 435.145012 383.852959 425.493794 
C 393.504176 415.842577 401.160469 404.384125 406.38367 391.774202 
C 411.606871 379.164278 414.295404 365.648114 414.295404 351.999231 
" clip-path="url(#p29ec083bc4)" style="fill: none; stroke: #cccccc; stroke-linecap: round"/>
     </g>
    </g>
    <g id="ytick_3">
     <g id="line2d_15">
      <path d="M 466.263907 351.999231 
C 466.263907 331.525907 462.231109 311.25166 454.396307 292.336775 
C 446.561505 273.421889 435.077067 256.234213 420.60024 241.757386 
C 406.123414 227.28056 388.935737 215.796122 370.020852 207.96132 
C 351.105967 200.126518 330.83172 196.093719 310.358396 196.093719 
C 289.885071 196.093719 269.610825 200.126518 250.695939 207.96132 
C 231.781054 215.796122 214.593377 227.28056 200.116551 241.757386 
C 185.639725 256.234213 174.155286 273.421889 166.320484 292.336775 
C 158.485682 311.25166 154.452884 331.525907 154.452884 351.999231 
C 154.452884 372.472555 158.485682 392.746802 166.320484 411.661687 
C 174.155286 430.576573 185.639725 447.764249 200.116551 462.241076 
C 214.593377 476.717902 231.781054 488.20234 250.695939 496.037142 
C 269.610825 503.871944 289.885071 507.904743 310.358396 507.904743 
C 330.83172 507.904743 351.105967 503.871944 370.020852 496.037142 
C 388.935737 488.20234 406.123414 476.717902 420.60024 462.241076 
C 435.077067 447.764249 446.561505 430.576573 454.396307 411.661687 
C 462.231109 392.746802 466.263907 372.472555 466.263907 351.999231 
" clip-path="url(#p29ec083bc4)" style="fill: none; stroke: #cccccc; stroke-linecap: round"/>
     </g>
    </g>
    <g id="ytick_4">
     <g id="line2d_16">
      <path d="M 518.232411 351.999231 
C 518.232411 324.701465 512.855347 297.669136 502.408944 272.449289 
C 491.962542 247.229442 476.649957 224.31254 457.347522 205.010105 
C 438.045087 185.70767 415.128184 170.395085 389.908338 159.948683 
C 364.688491 149.50228 337.656161 144.125215 310.358396 144.125215 
C 283.06063 144.125215 256.028301 149.50228 230.808454 159.948683 
C 205.588607 170.395085 182.671705 185.70767 163.36927 205.010105 
C 144.066834 224.31254 128.75425 247.229442 118.307847 272.449289 
C 107.861445 297.669136 102.48438 324.701465 102.48438 351.999231 
C 102.48438 379.296997 107.861445 406.329326 118.307847 431.549173 
C 128.75425 456.76902 144.066834 479.685922 163.36927 498.988357 
C 182.671705 518.290792 205.588607 533.603377 230.808454 544.04978 
C 256.028301 554.496182 283.06063 559.873247 310.358396 559.873247 
C 337.656161 559.873247 364.688491 554.496182 389.908338 544.04978 
C 415.128184 533.603377 438.045087 518.290792 457.347522 498.988357 
C 476.649957 479.685922 491.962542 456.76902 502.408944 431.549173 
C 512.855347 406.329326 518.232411 379.296997 518.232411 351.999231 
" clip-path="url(#p29ec083bc4)" style="fill: none; stroke: #cccccc; stroke-linecap: round"/>
     </g>
    </g>
    <g id="ytick_5">
     <g id="line2d_17">
      <path d="M 570.200915 351.999231 
C 570.200915 317.877024 563.479585 284.086612 550.421581 252.561804 
C 537.363578 221.036995 518.222847 192.390867 494.094803 168.262823 
C 469.966759 144.134779 441.320632 124.994049 409.795823 111.936045 
C 378.271014 98.878042 344.480603 92.156711 310.358396 92.156711 
C 276.236189 92.156711 242.445777 98.878042 210.920968 111.936045 
C 179.39616 124.994049 150.750032 144.134779 126.621988 168.262823 
C 102.493944 192.390867 83.353213 221.036995 70.29521 252.561804 
C 57.237207 284.086612 50.515876 317.877024 50.515876 351.999231 
C 50.515876 386.121438 57.237207 419.91185 70.29521 451.436658 
C 83.353213 482.961467 102.493944 511.607595 126.621988 535.735639 
C 150.750032 559.863683 179.39616 579.004413 210.920968 592.062417 
C 242.445777 605.12042 276.236189 611.841751 310.358396 611.841751 
C 344.480603 611.841751 378.271014 605.12042 409.795823 592.062417 
C 441.320632 579.004413 469.966759 559.863683 494.094803 535.735639 
C 518.222847 511.607595 537.363578 482.961467 550.421581 451.436658 
C 563.479585 419.91185 570.200915 386.121438 570.200915 351.999231 
" clip-path="url(#p29ec083bc4)" style="fill: none; stroke: #cccccc; stroke-linecap: round"/>
     </g>
    </g>
   </g>
   <g id="patch_3">
    <path d="M 310.358396 351.999231 
L 535.388619 222.077971 
L 440.279656 126.969008 
L 310.358396 351.999231 
L 180.437136 126.969008 
L 310.358396 351.999231 
L 310.358396 351.999231 
L 85.328173 481.920491 
L 180.437136 577.029454 
L 310.358396 351.999231 
L 440.279656 577.029454 
L 535.388619 481.920491 
z
" clip-path="url(#p29ec083bc4)" style="fill: #4c72b0; opacity: 0.25; stroke: #ffffff; stroke-linejoin: miter"/>
   </g>
   <g id="patch_4">
    <path d="M 570.200915 351.999231 
L 310.358396 351.999231 
L 310.358396 351.999231 
L 310.358396 92.156711 
L 310.358396 351.999231 
L 85.328173 222.077971 
L 50.515876 351.999231 
L 310.358396 351.999231 
L 310.358396 351.999231 
L 310.358396 611.841751 
L 310.358396 351.999231 
L 310.358396 351.999231 
z
" clip-path="url(#p29ec083bc4)" style="fill: #dd8452; opacity: 0.25; stroke: #ffffff; stroke-linejoin: miter"/>
   </g>
   <g id="line2d_18">
    <path d="M 310.358396 351.999231 
L 535.388619 222.077971 
L 440.279656 126.969008 
L 310.358396 351.999231 
L 180.437136 126.969008 
L 310.358396 351.999231 
L 310.358396 351.999231 
L 85.328173 481.920491 
L 180.437136 577.029454 
L 310.358396 351.999231 
L 440.279656 577.029454 
L 535.388619 481.920491 
L 310.358396 351.999231 
" clip-path="url(#p29ec083bc4)" style="fill: none; stroke: #4c72b0; stroke-width: 1.5; stroke-linecap: round"/>
   </g>
   <g id="line2d_19">
    <path d="M 570.200915 351.999231 
L 310.358396 351.999231 
L 310.358396 351.999231 
L 310.358396 92.156711 
L 310.358396 351.999231 
L 85.328173 222.077971 
L 50.515876 351.999231 
L 310.358396 351.999231 
L 310.358396 351.999231 
L 310.358396 611.841751 
L 310.358396 351.999231 
L 310.358396 351.999231 
L 570.200915 351.999231 
" clip-path="url(#p29ec083bc4)" style="fill: none; stroke: #dd8452; stroke-width: 1.5; stroke-linecap: round"/>
   </g>
   <g id="patch_5">
    <path d="M 583.193041 351.999231 
C 583.193041 316.170914 576.135644 280.690982 562.424741 247.589932 
C 548.713837 214.488883 528.61607 184.410449 503.281624 159.076003 
C 477.947178 133.741557 447.868743 113.64379 414.767694 99.932886 
C 381.666645 86.221983 346.186713 79.164585 310.358396 79.164585 
C 274.530078 79.164585 239.050146 86.221983 205.949097 99.932886 
C 172.848048 113.64379 142.769614 133.741557 117.435168 159.076003 
C 92.100721 184.410449 72.002954 214.488883 58.292051 247.589932 
C 44.581147 280.690982 37.52375 316.170914 37.52375 351.999231 
C 37.52375 387.827548 44.581147 423.307481 58.292051 456.40853 
C 72.002954 489.509579 92.100721 519.588013 117.435168 544.922459 
C 142.769614 570.256905 172.848048 590.354672 205.949097 604.065576 
C 239.050146 617.776479 274.530078 624.833877 310.358396 624.833877 
C 346.186713 624.833877 381.666645 617.776479 414.767694 604.065576 
C 447.868743 590.354672 477.947178 570.256905 503.281624 544.922459 
C 528.61607 519.588013 548.713837 489.509579 562.424741 456.40853 
C 576.135644 423.307481 583.193041 387.827548 583.193041 351.999231 
" style="fill: none; stroke: #cccccc; stroke-width: 1.25; stroke-linejoin: miter; stroke-linecap: square"/>
   </g>
   <g id="text_13">
    <!-- Normalized Profiles of Clusters (Model: KMeans) -->
    <g transform="translate(130.768552 18.597656) scale(0.15 -0.15)">
     <defs>
      <path id="DejaVuSans-20" transform="scale(0.015625)"/>
      <path id="DejaVuSans-43" d="M 4122 4306 
L 4122 3641 
Q 3803 3938 3442 4084 
Q 3081 4231 2675 4231 
Q 1875 4231 1450 3742 
Q 1025 3253 1025 2328 
Q 1025 1406 1450 917 
Q 1875 428 2675 428 
Q 3081 428 3442 575 
Q 3803 722 4122 1019 
L 4122 359 
Q 3791 134 3420 21 
Q 3050 -91 2638 -91 
Q 1578 -91 968 557 
Q 359 1206 359 2328 
Q 359 3453 968 4101 
Q 1578 4750 2638 4750 
Q 3056 4750 3426 4639 
Q 3797 4528 4122 4306 
z
" transform="scale(0.015625)"/>
      <path id="DejaVuSans-28" d="M 1984 4856 
Q 1566 4138 1362 3434 
Q 1159 2731 1159 2009 
Q 1159 1288 1364 580 
Q 1569 -128 1984 -844 
L 1484 -844 
Q 1016 -109 783 600 
Q 550 1309 550 2009 
Q 550 2706 781 3412 
Q 1013 4119 1484 4856 
L 1984 4856 
z
" transform="scale(0.015625)"/>
      <path id="DejaVuSans-4d" d="M 628 4666 
L 1569 4666 
L 2759 1491 
L 3956 4666 
L 4897 4666 
L 4897 0 
L 4281 0 
L 4281 4097 
L 3078 897 
L 2444 897 
L 1241 4097 
L 1241 0 
L 628 0 
L 628 4666 
z
" transform="scale(0.015625)"/>
      <path id="DejaVuSans-3a" d="M 750 794 
L 1409 794 
L 1409 0 
L 750 0 
L 750 794 
z
M 750 3309 
L 1409 3309 
L 1409 2516 
L 750 2516 
L 750 3309 
z
" transform="scale(0.015625)"/>
      <path id="DejaVuSans-29" d="M 513 4856 
L 1013 4856 
Q 1481 4119 1714 3412 
Q 1947 2706 1947 2009 
Q 1947 1309 1714 600 
Q 1481 -109 1013 -844 
L 513 -844 
Q 928 -128 1133 580 
Q 1338 1288 1338 2009 
Q 1338 2731 1133 3434 
Q 928 4138 513 4856 
z
" transform="scale(0.015625)"/>
     </defs>
     <use xlink:href="#DejaVuSans-4e"/>
     <use xlink:href="#DejaVuSans-6f" transform="translate(74.804688 0)"/>
     <use xlink:href="#DejaVuSans-72" transform="translate(135.986328 0)"/>
     <use xlink:href="#DejaVuSans-6d" transform="translate(175.349609 0)"/>
     <use xlink:href="#DejaVuSans-61" transform="translate(272.761719 0)"/>
     <use xlink:href="#DejaVuSans-6c" transform="translate(334.041016 0)"/>
     <use xlink:href="#DejaVuSans-69" transform="translate(361.824219 0)"/>
     <use xlink:href="#DejaVuSans-7a" transform="translate(389.607422 0)"/>
     <use xlink:href="#DejaVuSans-65" transform="translate(442.097656 0)"/>
     <use xlink:href="#DejaVuSans-64" transform="translate(503.621094 0)"/>
     <use xlink:href="#DejaVuSans-20" transform="translate(567.097656 0)"/>
     <use xlink:href="#DejaVuSans-50" transform="translate(598.884766 0)"/>
     <use xlink:href="#DejaVuSans-72" transform="translate(657.4375 0)"/>
     <use xlink:href="#DejaVuSans-6f" transform="translate(696.300781 0)"/>
     <use xlink:href="#DejaVuSans-66" transform="translate(757.482422 0)"/>
     <use xlink:href="#DejaVuSans-69" transform="translate(792.6875 0)"/>
     <use xlink:href="#DejaVuSans-6c" transform="translate(820.470703 0)"/>
     <use xlink:href="#DejaVuSans-65" transform="translate(848.253906 0)"/>
     <use xlink:href="#DejaVuSans-73" transform="translate(909.777344 0)"/>
     <use xlink:href="#DejaVuSans-20" transform="translate(961.876953 0)"/>
     <use xlink:href="#DejaVuSans-6f" transform="translate(993.664062 0)"/>
     <use xlink:href="#DejaVuSans-66" transform="translate(1054.845703 0)"/>
     <use xlink:href="#DejaVuSans-20" transform="translate(1090.050781 0)"/>
     <use xlink:href="#DejaVuSans-43" transform="translate(1121.837891 0)"/>
     <use xlink:href="#DejaVuSans-6c" transform="translate(1191.662109 0)"/>
     <use xlink:href="#DejaVuSans-75" transform="translate(1219.445312 0)"/>
     <use xlink:href="#DejaVuSans-73" transform="translate(1282.824219 0)"/>
     <use xlink:href="#DejaVuSans-74" transform="translate(1334.923828 0)"/>
     <use xlink:href="#DejaVuSans-65" transform="translate(1374.132812 0)"/>
     <use xlink:href="#DejaVuSans-72" transform="translate(1435.65625 0)"/>
     <use xlink:href="#DejaVuSans-73" transform="translate(1476.769531 0)"/>
     <use xlink:href="#DejaVuSans-20" transform="translate(1528.869141 0)"/>
     <use xlink:href="#DejaVuSans-28" transform="translate(1560.65625 0)"/>
     <use xlink:href="#DejaVuSans-4d" transform="translate(1599.669922 0)"/>
     <use xlink:href="#DejaVuSans-6f" transform="translate(1685.949219 0)"/>
     <use xlink:href="#DejaVuSans-64" transform="translate(1747.130859 0)"/>
     <use xlink:href="#DejaVuSans-65" transform="translate(1810.607422 0)"/>
     <use xlink:href="#DejaVuSans-6c" transform="translate(1872.130859 0)"/>
     <use xlink:href="#DejaVuSans-3a" transform="translate(1899.914062 0)"/>
     <use xlink:href="#DejaVuSans-20" transform="translate(1933.605469 0)"/>
     <use xlink:href="#DejaVuSans-4b" transform="translate(1965.392578 0)"/>
     <use xlink:href="#DejaVuSans-4d" transform="translate(2030.96875 0)"/>
     <use xlink:href="#DejaVuSans-65" transform="translate(2117.248047 0)"/>
     <use xlink:href="#DejaVuSans-61" transform="translate(2178.771484 0)"/>
     <use xlink:href="#DejaVuSans-6e" transform="translate(2240.050781 0)"/>
     <use xlink:href="#DejaVuSans-73" transform="translate(2303.429688 0)"/>
     <use xlink:href="#DejaVuSans-29" transform="translate(2355.529297 0)"/>
    </g>
   </g>
   <g id="legend_1">
    <g id="patch_6">
     <path d="M 688.07086 50.747031 
L 741.993829 50.747031 
Q 743.393829 50.747031 743.393829 49.347031 
L 743.393829 29.497656 
Q 743.393829 28.097656 741.993829 28.097656 
L 688.07086 28.097656 
Q 686.67086 28.097656 686.67086 29.497656 
L 686.67086 49.347031 
Q 686.67086 50.747031 688.07086 50.747031 
z
" style="fill: #ffffff; opacity: 0.8; stroke: #cccccc; stroke-linejoin: miter"/>
    </g>
    <g id="line2d_20">
     <path d="M 689.47086 33.766562 
L 696.47086 33.766562 
L 703.47086 33.766562 
" style="fill: none; stroke: #4c72b0; stroke-width: 1.5; stroke-linecap: round"/>
    </g>
    <g id="text_14">
     <!-- Cluster 0 -->
     <g style="fill: #262626" transform="translate(709.07086 36.216562) scale(0.07 -0.07)">
      <defs>
       <path id="DejaVuSans-30" d="M 2034 4250 
Q 1547 4250 1301 3770 
Q 1056 3291 1056 2328 
Q 1056 1369 1301 889 
Q 1547 409 2034 409 
Q 2525 409 2770 889 
Q 3016 1369 3016 2328 
Q 3016 3291 2770 3770 
Q 2525 4250 2034 4250 
z
M 2034 4750 
Q 2819 4750 3233 4129 
Q 3647 3509 3647 2328 
Q 3647 1150 3233 529 
Q 2819 -91 2034 -91 
Q 1250 -91 836 529 
Q 422 1150 422 2328 
Q 422 3509 836 4129 
Q 1250 4750 2034 4750 
z
" transform="scale(0.015625)"/>
      </defs>
      <use xlink:href="#DejaVuSans-43"/>
      <use xlink:href="#DejaVuSans-6c" transform="translate(69.824219 0)"/>
      <use xlink:href="#DejaVuSans-75" transform="translate(97.607422 0)"/>
      <use xlink:href="#DejaVuSans-73" transform="translate(160.986328 0)"/>
      <use xlink:href="#DejaVuSans-74" transform="translate(213.085938 0)"/>
      <use xlink:href="#DejaVuSans-65" transform="translate(252.294922 0)"/>
      <use xlink:href="#DejaVuSans-72" transform="translate(313.818359 0)"/>
      <use xlink:href="#DejaVuSans-20" transform="translate(354.931641 0)"/>
      <use xlink:href="#DejaVuSans-30" transform="translate(386.71875 0)"/>
     </g>
    </g>
    <g id="line2d_21">
     <path d="M 689.47086 44.04125 
L 696.47086 44.04125 
L 703.47086 44.04125 
" style="fill: none; stroke: #dd8452; stroke-width: 1.5; stroke-linecap: round"/>
    </g>
    <g id="text_15">
     <!-- Cluster 1 -->
     <g style="fill: #262626" transform="translate(709.07086 46.49125) scale(0.07 -0.07)">
      <defs>
       <path id="DejaVuSans-31" d="M 794 531 
L 1825 531 
L 1825 4091 
L 703 3866 
L 703 4441 
L 1819 4666 
L 2450 4666 
L 2450 531 
L 3481 531 
L 3481 0 
L 794 0 
L 794 531 
z
" transform="scale(0.015625)"/>
      </defs>
      <use xlink:href="#DejaVuSans-43"/>
      <use xlink:href="#DejaVuSans-6c" transform="translate(69.824219 0)"/>
      <use xlink:href="#DejaVuSans-75" transform="translate(97.607422 0)"/>
      <use xlink:href="#DejaVuSans-73" transform="translate(160.986328 0)"/>
      <use xlink:href="#DejaVuSans-74" transform="translate(213.085938 0)"/>
      <use xlink:href="#DejaVuSans-65" transform="translate(252.294922 0)"/>
      <use xlink:href="#DejaVuSans-72" transform="translate(313.818359 0)"/>
      <use xlink:href="#DejaVuSans-20" transform="translate(354.931641 0)"/>
      <use xlink:href="#DejaVuSans-31" transform="translate(386.71875 0)"/>
     </g>
    </g>
   </g>
  </g>
 </g>
 <defs>
  <clipPath id="p29ec083bc4">
   <path d="M 583.193041 351.999231 
C 583.193041 316.170914 576.135644 280.690982 562.424741 247.589932 
C 548.713837 214.488883 528.61607 184.410449 503.281624 159.076003 
C 477.947178 133.741557 447.868743 113.64379 414.767694 99.932886 
C 381.666645 86.221983 346.186713 79.164585 310.358396 79.164585 
C 274.530078 79.164585 239.050146 86.221983 205.949097 99.932886 
C 172.848048 113.64379 142.769614 133.741557 117.435168 159.076003 
C 92.100721 184.410449 72.002954 214.488883 58.292051 247.589932 
C 44.581147 280.690982 37.52375 316.170914 37.52375 351.999231 
C 37.52375 387.827548 44.581147 423.307481 58.292051 456.40853 
C 72.002954 489.509579 92.100721 519.588013 117.435168 544.922459 
C 142.769614 570.256905 172.848048 590.354672 205.949097 604.065576 
C 239.050146 617.776479 274.530078 624.833877 310.358396 624.833877 
C 346.186713 624.833877 381.666645 617.776479 414.767694 604.065576 
C 447.868743 590.354672 477.947178 570.256905 503.281624 544.922459 
C 528.61607 519.588013 548.713837 489.509579 562.424741 456.40853 
C 576.135644 423.307481 583.193041 387.827548 583.193041 351.999231 
M 310.358396 351.999231 
C 310.358396 351.999231 310.358396 351.999231 310.358396 351.999231 
C 310.358396 351.999231 310.358396 351.999231 310.358396 351.999231 
C 310.358396 351.999231 310.358396 351.999231 310.358396 351.999231 
C 310.358396 351.999231 310.358396 351.999231 310.358396 351.999231 
C 310.358396 351.999231 310.358396 351.999231 310.358396 351.999231 
C 310.358396 351.999231 310.358396 351.999231 310.358396 351.999231 
C 310.358396 351.999231 310.358396 351.999231 310.358396 351.999231 
C 310.358396 351.999231 310.358396 351.999231 310.358396 351.999231 
C 310.358396 351.999231 310.358396 351.999231 310.358396 351.999231 
C 310.358396 351.999231 310.358396 351.999231 310.358396 351.999231 
C 310.358396 351.999231 310.358396 351.999231 310.358396 351.999231 
C 310.358396 351.999231 310.358396 351.999231 310.358396 351.999231 
C 310.358396 351.999231 310.358396 351.999231 310.358396 351.999231 
C 310.358396 351.999231 310.358396 351.999231 310.358396 351.999231 
C 310.358396 351.999231 310.358396 351.999231 310.358396 351.999231 
C 310.358396 351.999231 310.358396 351.999231 310.358396 351.999231 
z
"/>
  </clipPath>
 </defs>
</svg>
